<svg xmlns="http://www.w3.org/2000/svg" viewBox="0 0 512.000000 512.000000">
  <path transform="translate(0.000000,512.000000) scale(0.100000,-0.100000)" d="M1133 4217 c-513 -199 -933 -364 -933 -367 0 -3 148 -62 328 -132 l327 -127 943 366 c582 226 938 370 929 374 -29 17 -636 249 -649 249 -7 -1 -433 -164 -945 -363z M2468 3698 c-511 -199 -928 -364 -928 -367 0 -8 522 -211 541 -211 17 0 1879 723 1879 730 0 8 -529 210 -548 209 -9 0 -434 -163 -944 -361z M80 2635 c0 -1143 0 -1131 42 -1148 104 -41 1871 -727 1874 -727 2 0 4 499 4 1109 l0 1109 -42 17 c-111 44 -528 205 -532 205 -3 0 -7 -109 -8 -242 -3 -211 -5 -243 -19 -246 -8 -1 -86 58 -173 132 -87 74 -163 133 -170 130 -62 -22 -274 -84 -288 -84 -17 0 -18 19 -18 288 l0 287 -328 128 c-181 70 -331 127 -335 127 -4 0 -7 -488 -7 -1085z M3240 3400 c-448 -176 -875 -342 -947 -370 l-133 -52 0 -1109 c0 -610 2 -1109 5 -1109 6 0 859 331 863 335 2 2 -8 39 -21 82 -38 118 -51 227 -44 377 12 293 126 546 335 748 135 130 261 207 427 261 92 30 236 57 306 57 l49 0 0 550 c0 434 -3 550 -12 549 -7 -1 -380 -144 -828 -319z M3876 2444 c-409 -91 -706 -420 -756 -838 -41 -349 128 -709 426 -905 482 -316 1133 -141 1388 374 137 275 135 588 -4 866 -115 228 -334 410 -585 485 -77 23 -112 27 -245 30 -113 3 -173 -1 -224 -12z m719 -478 c47 -20 75 -69 75 -131 l0 -50 -378 -377 -377 -378 -50 0 c-30 0 -61 7 -77 18 -26 16 -302 355 -340 417 -64 105 50 236 166 191 33 -13 61 -41 144 -146 57 -71 107 -130 112 -130 4 0 134 126 288 280 154 153 295 288 314 300 39 24 76 25 123 6z"/>
</svg>
