<svg xmlns="http://www.w3.org/2000/svg" viewBox="0 0 512.000000 512.000000">
  <path transform="translate(0.000000,512.000000) scale(0.100000,-0.100000)" d="M1532 4647 c-48 -18 -99 -63 -125 -110 l-22 -42 0 -2035 0 -2035 375 0 375 0 5 410 c5 443 5 440 62 491 57 52 68 54 358 54 290 0 301 -2 358 -54 57 -51 57 -48 62 -491 l5 -410 375 0 375 0 3 1710 c1 1116 -1 1729 -8 1765 -13 72 -50 122 -113 155 -66 33 -1978 605 -2021 604 -17 0 -46 -6 -64 -12z m863 -1249 c46 -21 55 -54 55 -198 0 -201 -9 -210 -211 -210 -201 0 -209 9 -209 213 1 199 8 206 207 207 82 0 142 -5 158 -12z m640 0 c46 -21 55 -54 55 -198 0 -201 -9 -210 -211 -210 -201 0 -209 9 -209 213 1 141 8 169 51 193 32 17 277 19 314 2z m-640 -640 c46 -21 55 -54 55 -198 0 -201 -9 -210 -211 -210 -201 0 -209 9 -209 213 1 199 8 206 207 207 82 0 142 -5 158 -12z m640 0 c46 -21 55 -54 55 -198 0 -201 -9 -210 -211 -210 -201 0 -209 9 -209 213 1 141 8 169 51 193 32 17 277 19 314 2z m-640 -640 c46 -21 55 -54 55 -198 0 -201 -9 -210 -211 -210 -201 0 -209 9 -209 213 1 141 8 169 51 193 32 17 277 19 314 2z m640 0 c46 -21 55 -54 55 -198 0 -201 -9 -210 -211 -210 -201 0 -209 9 -209 213 1 199 8 206 207 207 82 0 142 -5 158 -12z M811 4049 c-64 -12 -116 -53 -146 -112 l-25 -51 0 -1623 0 -1623 -67 0 c-83 0 -128 -23 -141 -72 -19 -71 24 -132 100 -143 24 -3 178 -5 343 -3 l300 3 0 1815 0 1815 -160 2 c-88 0 -180 -3 -204 -8z M3942 1833 l3 -1408 300 -3 c165 -2 319 0 343 3 76 11 119 72 100 143 -13 49 -58 72 -140 72 l-68 0 0 1113 c0 1054 -1 1114 -19 1152 -10 22 -33 54 -52 70 -37 32 -439 265 -458 265 -8 0 -10 -377 -9 -1407z M2345 1168 c-3 -7 -4 -177 -3 -378 l3 -365 215 0 215 0 0 375 0 375 -213 3 c-165 2 -214 0 -217 -10z"/>
</svg>
