<svg xmlns="http://www.w3.org/2000/svg" viewBox="0 0 512.000000 512.000000">
  <path transform="translate(0.000000,512.000000) scale(0.100000,-0.100000)" d="M2875 5106 c-400 -77 -720 -345 -856 -716 -238 -652 175 -1356 865 -1476 131 -23 328 -14 461 20 119 31 293 114 386 185 438 333 574 919 324 1400 -58 111 -125 199 -223 292 -140 135 -305 227 -489 276 -121 31 -355 41 -468 19z m400 -321 c363 -99 616 -449 592 -819 -17 -261 -147 -485 -362 -626 -369 -240 -866 -137 -1110 231 -210 315 -167 736 102 1001 116 115 248 189 398 222 88 20 293 15 380 -9z M3403 4439 c-28 -8 -173 -152 -423 -421 -29 -32 -57 -58 -61 -58 -4 0 -40 38 -80 86 -79 94 -114 117 -174 117 -111 0 -188 -119 -140 -214 23 -44 269 -335 302 -356 36 -24 111 -27 155 -6 40 20 579 587 605 637 61 116 -56 254 -184 215z M355 4726 c-93 -40 -122 -160 -58 -236 45 -54 50 -55 332 -60 l264 -5 313 -1325 c173 -729 324 -1370 337 -1425 l24 -101 -233 -179 c-295 -226 -326 -267 -327 -425 0 -140 78 -266 201 -327 57 -28 57 -28 300 -31 223 -3 243 -5 236 -20 -4 -9 -9 -57 -12 -105 -8 -150 44 -280 149 -371 254 -219 639 -116 750 200 17 49 20 76 16 159 -2 55 -7 108 -12 118 -7 16 16 17 407 17 l414 0 -14 -72 c-47 -234 113 -471 356 -528 73 -17 193 -8 264 19 133 51 237 165 279 303 17 56 20 86 16 151 -3 45 -8 92 -12 104 l-7 22 210 3 c194 3 213 5 238 24 51 38 69 71 69 129 0 60 -20 95 -75 132 l-33 23 -1703 0 c-1534 0 -1704 2 -1718 16 -35 34 -40 30 244 248 l215 165 1370 3 1370 3 56 23 c102 41 182 130 215 237 19 66 51 1637 34 1712 -16 73 -78 163 -143 206 -137 94 -268 78 -312 -38 -12 -29 -15 -56 -11 -80 9 -49 65 -109 115 -124 22 -6 43 -16 46 -21 11 -18 -25 -1573 -37 -1587 -8 -11 -258 -13 -1319 -13 -720 0 -1309 3 -1309 8 0 4 -108 471 -239 1037 -131 567 -238 1031 -236 1033 1 1 62 -6 135 -16 152 -23 186 -18 236 32 71 71 52 196 -37 241 -16 9 -115 29 -220 45 -105 16 -193 30 -194 32 -2 2 -36 129 -75 283 -77 301 -92 334 -156 361 -47 20 -674 20 -719 0z m1905 -4134 c50 -25 80 -75 80 -132 0 -148 -194 -205 -277 -81 -65 96 10 231 127 231 19 0 51 -8 70 -18z m1733 -15 c41 -31 61 -83 54 -138 -24 -181 -301 -162 -301 21 0 57 20 91 75 128 46 32 122 27 172 -11z"/>
</svg>
