<svg xmlns="http://www.w3.org/2000/svg" viewBox="0 0 512.000000 512.000000">
  <path transform="translate(0.000000,512.000000) scale(0.100000,-0.100000)" d="M365 4353 c-11 -2 -40 -11 -64 -20 l-43 -16 1108 -1108 c1033 -1033 1111 -1109 1151 -1118 27 -5 60 -5 86 1 39 8 132 99 1149 1116 609 608 1104 1110 1100 1114 -4 4 -34 14 -67 22 -53 14 -298 16 -2230 15 -1193 -1 -2179 -3 -2190 -6z M24 4058 c-18 -41 -19 -105 -22 -1477 -2 -1254 0 -1441 13 -1485 8 -28 19 -58 25 -66 8 -12 165 140 782 757 l773 773 -770 770 c-423 423 -773 770 -776 770 -4 0 -15 -19 -25 -42z M4295 3330 l-770 -770 773 -773 c617 -617 774 -769 782 -757 6 8 17 38 25 66 13 44 15 231 13 1485 -3 1372 -4 1436 -22 1477 -10 23 -21 42 -25 42 -3 0 -353 -347 -776 -770z M1031 1576 l-773 -773 44 -19 c42 -18 107 -19 2228 -22 1375 -1 2202 1 2230 7 25 6 59 15 75 21 l29 11 -774 774 -775 775 -245 -244 c-142 -141 -262 -252 -285 -264 -139 -69 -311 -69 -450 0 -23 12 -143 123 -285 264 l-245 244 -774 -774z"/>
</svg>
