<svg xmlns="http://www.w3.org/2000/svg" viewBox="0 0 512.000000 512.000000">
  <path transform="translate(0.000000,512.000000) scale(0.100000,-0.100000)" d="M2325 5104 c-393 -53 -736 -223 -1021 -508 -191 -192 -319 -391 -415 -649 -81 -219 -124 -527 -99 -722 53 -424 360 -1098 898 -1970 257 -416 807 -1220 855 -1249 12 -8 22 -8 35 0 27 17 261 347 500 704 376 562 637 999 857 1435 236 467 362 811 395 1080 18 142 -1 364 -46 547 -125 502 -471 931 -941 1167 -300 149 -679 211 -1018 165z m348 -1139 c240 -42 441 -231 502 -470 19 -76 19 -222 0 -304 -25 -102 -89 -216 -170 -296 -245 -245 -645 -245 -890 0 -123 123 -185 272 -185 450 0 107 18 184 65 280 85 175 258 306 448 340 94 17 136 17 230 0z"/>
</svg>
