<svg xmlns="http://www.w3.org/2000/svg" viewBox="0 0 512.000000 512.000000">
  <path transform="translate(0.000000,512.000000) scale(0.100000,-0.100000)" d="M3033 5102 c-28 -10 -69 -31 -90 -46 -21 -15 -59 -42 -85 -61 -83 -58 -174 -58 -256 1 -106 75 -138 95 -175 105 -71 19 -148 -14 -189 -79 -21 -33 -23 -48 -21 -142 4 -293 102 -571 261 -742 l43 -47 -58 -37 c-73 -46 -199 -143 -267 -202 l-51 -46 -5 340 -5 339 -30 54 c-47 86 -129 143 -270 190 -119 39 -258 55 -409 48 -273 -14 -487 -112 -552 -252 l-24 -50 0 -447 0 -447 -37 -6 c-88 -13 -203 -48 -268 -79 -92 -45 -147 -94 -179 -158 l-26 -52 0 -1106 0 -1107 -42 -12 c-69 -21 -171 -78 -218 -123 -77 -74 -80 -88 -80 -380 0 -156 4 -268 11 -285 41 -110 177 -201 370 -248 90 -22 314 -30 424 -16 214 29 410 133 456 242 l11 27 63 -29 c134 -60 211 -74 415 -73 166 0 195 3 281 26 169 46 292 126 339 222 19 41 20 59 20 642 l0 600 -26 52 c-32 64 -87 113 -179 158 -116 57 -207 76 -397 81 l-168 6 0 665 c0 651 0 667 -20 708 -59 121 -266 224 -487 241 l-83 6 0 303 c0 167 2 304 5 304 2 0 38 -13 78 -29 119 -48 215 -64 377 -64 177 -1 316 26 433 85 l37 18 0 -294 c0 -176 -4 -297 -10 -301 -5 -3 -45 -51 -90 -106 -66 -82 -80 -106 -80 -135 0 -48 37 -84 85 -84 41 0 46 4 155 139 150 185 381 391 578 513 l74 45 64 -21 64 -21 -120 -115 c-106 -102 -120 -119 -120 -148 0 -39 46 -92 80 -92 35 0 55 15 232 181 94 87 177 159 185 159 10 0 13 -29 13 -139 0 -123 2 -141 20 -164 42 -53 127 -39 149 24 6 18 11 88 11 156 0 103 2 124 14 121 8 -2 90 -73 182 -158 91 -85 178 -161 192 -169 61 -32 140 41 113 105 -6 17 -63 76 -125 134 l-114 103 65 23 65 23 80 -49 c621 -386 1074 -1126 1204 -1972 20 -129 23 -386 5 -493 -68 -413 -314 -657 -763 -757 -88 -20 -130 -21 -785 -25 l-691 -5 -23 -24 c-34 -36 -31 -89 5 -121 l28 -24 712 4 c689 3 714 4 808 25 321 73 559 224 712 455 208 312 241 740 101 1304 -143 574 -424 1079 -811 1453 -55 53 -119 112 -143 133 l-44 36 39 -5 c252 -35 389 -88 504 -193 43 -40 62 -51 88 -51 46 0 82 38 82 85 0 86 -179 214 -390 279 -30 10 -61 19 -68 22 -9 3 0 20 27 51 118 140 120 326 6 481 -44 61 -137 131 -200 152 l-36 12 7 99 c6 81 4 107 -10 144 -21 53 -62 90 -117 105 -56 15 -100 4 -171 -44 -33 -22 -79 -53 -102 -68 -49 -33 -116 -44 -172 -29 -22 6 -67 32 -100 57 -92 73 -154 97 -254 101 -64 3 -98 -1 -137 -15z m219 -178 c18 -9 53 -34 78 -55 68 -57 132 -82 226 -87 124 -7 187 17 319 119 l40 31 3 -54 c7 -112 -36 -312 -93 -436 -89 -192 -227 -319 -367 -338 l-46 -6 57 114 c31 62 71 157 89 211 30 90 32 99 18 131 -16 38 -42 56 -80 56 -41 0 -73 -39 -102 -124 -37 -110 -76 -196 -137 -298 l-51 -88 -48 0 -47 0 -51 85 c-56 92 -113 219 -149 328 -24 70 -52 97 -101 97 -30 0 -80 -53 -80 -83 0 -38 56 -188 113 -307 28 -58 53 -109 55 -114 8 -17 -92 4 -144 29 -140 68 -256 232 -318 445 -27 94 -49 254 -44 313 l3 39 40 -31 c132 -102 195 -126 319 -119 94 5 158 30 226 87 77 65 122 82 192 76 26 -2 62 -12 80 -21z m-1551 -339 c141 -29 259 -97 259 -147 0 -32 -62 -83 -134 -112 -237 -94 -636 -62 -768 62 -54 51 -26 102 85 151 148 67 367 85 558 46z m2426 -44 c49 -35 78 -75 99 -133 51 -143 -92 -293 -292 -306 -40 -2 -84 -2 -99 2 l-26 7 42 47 c75 86 175 281 196 383 7 37 28 37 80 0z m-2907 -1156 c126 -33 230 -96 230 -141 0 -25 -52 -73 -105 -99 -191 -90 -525 -92 -715 -4 -101 47 -129 81 -104 130 23 45 158 105 292 129 75 14 328 4 402 -15z m-597 -426 c105 -39 227 -59 364 -59 164 0 280 25 451 97 10 4 12 -103 10 -532 l-3 -537 -61 -22 c-124 -45 -211 -110 -250 -187 -24 -48 -24 -48 -24 -379 0 -181 -2 -330 -4 -330 -2 0 -29 11 -59 25 -111 49 -202 66 -374 72 l-163 6 0 944 c0 896 1 945 18 938 9 -4 52 -20 95 -36z m1369 -1198 c96 -25 168 -61 202 -101 31 -38 32 -40 5 -74 -73 -92 -332 -152 -555 -127 -180 20 -326 80 -355 145 -28 61 96 136 285 172 100 19 317 11 418 -15z m-612 -420 c124 -49 231 -64 410 -58 165 5 256 23 366 72 31 14 58 25 60 25 2 0 4 -198 4 -439 l0 -439 -25 -31 c-109 -129 -523 -166 -779 -71 -31 12 -75 39 -97 59 l-39 38 0 443 c0 350 3 441 13 437 6 -3 46 -19 87 -36z m-529 -426 c122 -26 223 -77 249 -125 29 -54 -80 -130 -237 -167 -108 -25 -338 -25 -446 0 -157 37 -266 113 -237 167 35 66 166 116 375 144 51 7 226 -4 296 -19z m-436 -471 c109 -23 341 -23 450 0 44 10 117 32 162 50 l83 33 0 -100 0 -100 -39 -38 c-76 -72 -230 -112 -431 -112 -201 0 -355 40 -431 112 l-39 38 0 100 0 100 83 -33 c45 -18 118 -40 162 -50z M2960 3144 c-169 -45 -285 -184 -315 -376 l-6 -38 -54 0 c-71 0 -109 -29 -109 -85 0 -56 38 -85 110 -85 l54 0 0 -85 0 -85 -54 0 c-43 0 -61 -5 -82 -24 -37 -31 -38 -84 -4 -121 20 -21 32 -25 81 -25 l57 0 11 -62 c30 -173 153 -310 316 -353 80 -20 300 -20 380 0 175 46 307 199 322 372 5 63 3 71 -19 97 -18 21 -33 28 -62 29 -51 1 -81 -32 -90 -103 -14 -106 -79 -188 -174 -222 -59 -21 -286 -17 -344 5 -81 32 -158 136 -158 216 0 20 4 21 143 21 148 1 163 4 185 47 19 35 14 63 -17 94 l-29 29 -141 0 -141 0 0 85 0 85 144 0 144 0 26 31 c33 39 33 69 0 108 l-26 31 -144 0 -144 0 0 28 c0 75 91 190 170 213 20 6 98 9 186 7 148 -3 152 -4 200 -33 64 -40 111 -116 120 -196 8 -71 36 -103 91 -103 27 0 42 7 61 29 23 27 24 35 19 98 -15 173 -147 326 -322 372 -78 20 -308 19 -385 -1z M4634 1687 c-23 -20 -27 -33 -35 -115 -23 -222 -121 -377 -293 -461 -98 -47 -182 -70 -296 -78 -99 -7 -132 -21 -150 -63 -10 -24 -10 -36 0 -61 22 -52 49 -63 145 -55 269 20 496 126 617 287 93 125 158 314 158 467 0 85 -85 131 -146 79z"/>
</svg>
