<svg xmlns="http://www.w3.org/2000/svg" viewBox="0 0 512.000000 512.000000">
  <path transform="translate(0.000000,512.000000) scale(0.100000,-0.100000)" d="M881 5104 c-124 -33 -159 -61 -462 -363 -286 -286 -286 -286 -332 -381 -62 -130 -79 -214 -80 -380 0 -694 566 -1689 1465 -2576 897 -886 1882 -1429 2538 -1401 143 6 223 24 330 74 70 33 95 56 364 322 168 166 305 311 327 345 94 144 108 332 37 491 -30 66 -56 94 -432 473 -221 222 -422 417 -448 433 -73 47 -145 71 -234 76 -140 9 -253 -30 -355 -125 -51 -47 -69 -74 -120 -179 -85 -178 -163 -254 -309 -303 -89 -30 -211 -30 -305 -1 -251 78 -547 279 -806 549 -334 346 -532 748 -479 973 31 132 132 261 250 316 36 17 91 43 122 57 102 48 195 150 234 256 44 125 37 254 -22 380 -33 72 -53 93 -442 481 -336 334 -418 411 -467 436 -117 60 -260 78 -374 47z"/>
</svg>
