<svg xmlns="http://www.w3.org/2000/svg" viewBox="0 0 512.000000 512.000000">
  <path transform="translate(0.000000,512.000000) scale(0.100000,-0.100000)" d="M1479 4665 c-194 -44 -392 -176 -502 -336 -44 -65 -102 -195 -123 -274 -28 -111 -24 -295 10 -408 69 -232 217 -407 433 -516 114 -57 201 -75 353 -75 154 0 218 14 345 73 347 164 534 552 446 924 -35 146 -97 263 -200 370 -101 107 -201 170 -343 218 -82 28 -109 32 -223 35 -90 3 -151 -1 -196 -11z M3319 3634 c-8 -9 -34 -76 -59 -148 l-45 -131 -115 -41 c-63 -22 -152 -59 -197 -82 -46 -23 -92 -42 -103 -42 -11 0 -74 27 -140 60 -66 33 -127 60 -136 60 -22 0 -263 -238 -270 -266 -3 -13 7 -46 25 -82 28 -55 35 -62 68 -67 155 -26 316 -85 457 -166 l88 -50 32 26 c117 95 242 161 371 196 64 18 108 22 220 22 159 0 247 -18 372 -78 96 -45 154 -85 237 -164 181 -174 270 -383 270 -636 0 -250 -88 -459 -266 -631 -160 -155 -341 -234 -575 -250 l-92 -7 -3 -316 c-3 -301 -4 -318 -25 -358 l-21 -43 139 0 c122 0 141 2 158 19 10 10 35 72 55 137 21 66 45 126 54 135 9 9 55 28 102 43 47 15 131 49 187 76 56 28 112 50 123 50 11 0 75 -27 141 -60 87 -44 127 -59 142 -54 28 8 234 210 254 248 14 28 13 33 -46 153 -34 68 -61 134 -61 146 0 12 22 65 48 118 27 53 61 136 76 185 16 49 36 96 47 105 10 9 70 33 134 53 64 21 125 46 136 57 17 17 19 34 19 194 0 158 -2 177 -19 194 -10 10 -75 37 -144 60 -69 23 -130 48 -135 54 -5 7 -21 51 -36 99 -16 49 -50 133 -77 187 -27 55 -49 109 -49 120 0 11 27 76 61 144 59 121 60 125 46 153 -21 40 -227 240 -255 249 -16 5 -54 -10 -141 -54 -66 -34 -129 -61 -140 -61 -11 0 -66 23 -123 50 -57 28 -141 62 -188 77 -47 14 -93 34 -102 45 -10 11 -33 71 -53 134 -20 63 -45 124 -56 135 -17 17 -34 19 -198 19 -153 0 -181 -2 -192 -16z M3385 2756 c-120 -24 -209 -64 -307 -137 l-58 -42 74 -77 c138 -145 236 -309 301 -504 47 -140 65 -278 65 -490 0 -153 2 -177 16 -183 27 -10 204 16 277 42 94 32 168 78 250 155 283 263 311 691 65 987 -91 110 -236 202 -373 238 -86 22 -227 27 -310 11z M1000 2739 c-159 -21 -362 -101 -505 -200 -252 -174 -427 -449 -480 -757 -21 -120 -22 -1186 -1 -1235 16 -39 61 -82 99 -96 18 -7 139 -11 323 -11 l294 0 0 364 0 365 26 20 c47 37 103 22 124 -33 6 -17 10 -158 10 -372 l0 -344 760 0 760 0 0 360 0 361 25 24 c32 33 78 33 110 0 l25 -24 0 -361 0 -360 294 0 c185 0 305 4 323 11 40 15 73 48 94 94 17 37 19 76 19 580 0 597 -5 662 -60 827 -142 424 -518 733 -955 787 -49 6 -154 11 -232 11 l-143 0 0 -42 c0 -24 20 -272 45 -553 l44 -510 -34 -65 c-18 -36 -84 -155 -147 -265 -122 -214 -136 -230 -195 -209 -32 11 -48 37 -212 330 l-112 201 46 536 c25 295 45 546 45 557 0 19 -6 20 -162 19 -90 -1 -192 -5 -228 -10z M1555 2738 c-2 -7 -24 -249 -48 -538 l-44 -525 90 -162 c50 -90 93 -163 96 -163 3 0 46 71 95 158 l88 157 -41 515 c-23 283 -45 527 -47 543 l-6 27 -89 0 c-63 0 -91 -4 -94 -12z"/>
</svg>
