<svg xmlns="http://www.w3.org/2000/svg" viewBox="0 0 512.000000 512.000000">
  <path transform="translate(0.000000,512.000000) scale(0.100000,-0.100000)" d="M1176 5079 c-148 -20 -298 -68 -440 -140 -249 -127 -481 -363 -601 -614 -94 -195 -130 -353 -130 -575 0 -254 45 -445 158 -664 185 -362 539 -613 962 -681 116 -19 344 -19 460 0 430 69 783 324 971 698 104 209 148 401 149 647 0 222 -36 380 -130 575 -90 188 -276 406 -445 522 -149 101 -337 181 -515 218 -95 20 -341 28 -439 14z m253 -537 c41 -22 71 -74 71 -123 0 -33 3 -37 52 -60 152 -70 211 -172 157 -269 -28 -50 -72 -74 -131 -73 -40 1 -57 7 -95 37 -78 61 -148 68 -222 23 -35 -21 -71 -71 -71 -99 0 -23 33 -39 212 -104 258 -93 342 -143 391 -232 22 -41 27 -62 27 -120 0 -174 -104 -337 -261 -410 -57 -26 -59 -28 -59 -67 0 -78 -63 -138 -145 -138 -82 0 -145 60 -145 138 0 39 -2 41 -53 63 -74 32 -154 104 -168 152 -30 100 38 190 144 190 31 0 54 -7 78 -25 19 -13 45 -32 57 -41 13 -10 47 -19 75 -21 63 -5 119 23 155 77 43 63 38 67 -183 151 -110 41 -222 87 -250 101 -72 38 -130 91 -155 144 -19 39 -22 58 -18 134 4 78 9 98 43 167 47 95 116 166 209 214 62 32 66 36 66 69 0 78 64 140 145 140 22 0 56 -8 74 -18z M3465 4756 c-16 -7 -114 -99 -217 -202 -266 -270 -267 -252 14 -531 175 -173 197 -191 236 -198 34 -5 52 -2 90 17 57 28 85 73 84 133 0 52 -13 78 -60 128 l-36 37 382 0 382 0 0 -509 0 -508 23 -34 c63 -94 206 -88 257 11 20 39 20 53 18 644 -3 593 -3 605 -24 632 -11 15 -33 37 -48 48 -27 20 -42 21 -508 26 l-480 5 27 25 c88 83 90 198 4 263 -34 25 -105 32 -144 13z M3697 3036 c-74 -40 -1104 -637 -1119 -648 -15 -11 59 -57 583 -358 329 -190 604 -344 610 -342 31 8 1197 688 1190 695 -4 4 -261 154 -572 334 -499 288 -570 326 -614 330 -32 3 -60 -1 -78 -11z M2410 1450 c0 -664 0 -673 21 -710 25 -43 -23 -14 654 -404 l530 -306 3 692 c2 546 -1 695 -10 704 -7 6 -263 156 -569 332 -306 177 -572 331 -593 342 l-36 22 0 -672z M4522 1776 c-326 -189 -597 -347 -602 -352 -7 -7 -9 -264 -8 -702 l3 -692 560 323 c308 178 570 330 582 337 12 8 31 31 42 51 21 37 21 44 19 707 l-3 670 -593 -342z M586 2030 c-16 -5 -40 -19 -54 -32 -53 -49 -52 -42 -52 -679 0 -584 0 -592 21 -629 12 -21 38 -47 59 -59 37 -21 47 -21 516 -21 l478 0 -48 -49 c-30 -30 -50 -62 -56 -85 -22 -96 49 -186 148 -186 58 0 109 39 288 221 245 249 245 250 1 498 -203 205 -224 221 -291 221 -77 0 -130 -42 -146 -117 -12 -51 6 -100 57 -154 l46 -49 -387 0 -386 0 0 513 c0 490 -1 513 -20 544 -32 53 -113 82 -174 63z"/>
</svg>
