<svg xmlns="http://www.w3.org/2000/svg" viewBox="0 0 512.000000 512.000000">
  <path transform="translate(0.000000,512.000000) scale(0.100000,-0.100000)" d="M2340 5109 c-217 -35 -398 -112 -570 -244 -140 -108 -299 -306 -369 -459 -126 -278 -146 -608 -54 -901 110 -350 422 -668 771 -786 355 -120 764 -72 1066 125 157 102 312 260 402 411 215 357 228 841 32 1205 -184 343 -518 585 -891 645 -99 16 -298 18 -387 4z M1379 2635 c-491 -77 -803 -481 -919 -1190 -29 -181 -43 -400 -37 -584 4 -140 9 -180 32 -256 89 -300 295 -495 616 -582 59 -16 173 -18 1429 -21 956 -2 1390 0 1450 8 188 25 366 109 495 235 85 84 136 160 181 269 47 115 64 228 64 425 0 548 -127 1028 -350 1329 -170 228 -409 356 -703 378 -115 8 -147 -3 -307 -106 -207 -132 -242 -152 -342 -191 -151 -60 -244 -80 -398 -86 -158 -6 -279 14 -428 71 -123 47 -172 73 -335 179 -222 142 -256 152 -448 122z"/>
</svg>
